<?xml version="1.0" encoding="utf-8"?>
<!-- Generator: Adobe Illustrator 16.0.4, SVG Export Plug-In . SVG Version: 6.00 Build 0)  -->
<!DOCTYPE svg PUBLIC "-//W3C//DTD SVG 1.1//EN" "http://www.w3.org/Graphics/SVG/1.1/DTD/svg11.dtd">
<svg version="1.1" id="Layer_2" xmlns="http://www.w3.org/2000/svg" xmlns:xlink="http://www.w3.org/1999/xlink" x="0px" y="0px"
	 width="487px" height="600px" viewBox="0 0 487 600" enable-background="new 0 0 487 600" xml:space="preserve">
<path fill="none" stroke="#FF2C1F" stroke-width="0.25" d="M38.438,229.312c0.172,0.292,0.374,0.533,0.5,0.849
	c0.131,0.329,0.149,0.658,0.438,0.901"/>
<path fill="none" stroke="#FF2C1F" stroke-width="0.25" d="M44.75,237.5c0.298,0.263,0.369,0.8,0.606,1.137
	c0.244,0.346,0.512,0.687,0.764,1.026c0.646,0.869,0.711,1.892,1.255,2.774"/>
<path fill="none" stroke="#FF2C1F" stroke-width="0.25" d="M34.688,242.75c0.292,0.343,0.398,0.84,0.609,1.246
	c0.203,0.392,0.501,0.696,0.704,1.067"/>
<path fill="none" stroke="#FF2C1F" stroke-width="0.25" d="M39.5,251.125c0.128,0.364,0.363,0.836,0.562,1.125"/>
<path fill="none" stroke="#FF2C1F" stroke-width="0.25" d="M40.25,253c0.451,0.611,0.621,1.547,0.875,2.188"/>
<path fill="none" stroke="#FF2C1F" stroke-width="0.25" d="M51.438,260.812c0.179,0.239,0.299,0.583,0.375,0.875"/>
<path fill="none" stroke="#FF2C1F" stroke-width="0.25" d="M60.875,258.875c0.026-0.014,0.024-0.019,0.042-0.055
	c0.303,0.401,0.673,0.592,1,0.929c0.27,0.278,0.374,0.746,0.708,0.938"/>
<path fill="none" stroke="#FF2C1F" stroke-width="0.25" d="M64.875,265.75c0.023,0.408-0.104,0.772-0.059,1.175
	c0.027,0.244,0.243,0.784,0.184,0.888"/>
<path fill="none" stroke="#FF2C1F" stroke-width="0.25" d="M20.812,254.562c0.618,0.622,1.1,1.592,1.63,2.338
	c0.484,0.68,1.022,1.626,1.62,2.162"/>
<path fill="none" stroke="#FF2C1F" stroke-width="0.25" d="M23.438,257.312c1.147,1.717,2.035,3.628,3.28,5.316
	c0.334,0.454,0.715,0.851,0.97,1.372"/>
<path fill="none" stroke="#FF2C1F" stroke-width="0.25" d="M26.125,262.688c1.024,0.584,1.633,1.769,2.299,2.692
	c0.667,0.924,1.383,1.832,2.009,2.782c1.295,1.968,2.906,3.804,4.432,5.591c0.676,0.792,1.135,1.584,1.697,2.435"/>
<path fill="none" stroke="#FF2C1F" stroke-width="0.25" d="M35.938,274.625c0.678,0.842,0.977,1.938,1.619,2.811
	c0.521,0.709,1.122,1.376,1.631,2.064"/>
<path fill="none" stroke="#FF2C1F" stroke-width="0.25" d="M40.375,280.625c0.962,0.89,1.759,1.975,2.564,3
	c0.659,0.839,1.881,2.066,2.061,3.125"/>
<path fill="none" stroke="#FF2C1F" stroke-width="0.25" d="M44,285.188c1.754,3.605,4.253,6.721,6.568,9.952
	c0.456,0.636,1.385,1.456,1.557,2.235"/>
<path fill="none" stroke="#FF2C1F" stroke-width="0.25" d="M52,296.875c0.322,0.508,0.575,1.189,0.938,1.688"/>
<path fill="none" stroke="#FF2C1F" stroke-width="0.25" d="M52.75,297.875c0.405,0.748,0.974,1.331,1.464,2.028
	c0.949,1.351,1.877,2.745,2.708,4.175c0.411,0.707,0.72,1.427,1.082,2.157c0.685,1.384,1.547,2.574,2.371,3.861
	c0.303,0.474,1.146,1.23,1.188,1.778"/>
<path fill="none" stroke="#FF2C1F" stroke-width="0.25" d="M61.75,311.875c1.473,2.274,2.819,4.689,4.482,6.835
	c1.358,1.751,2.947,3.318,4.103,5.188c0.203,0.327,0.393,0.507,0.635,0.793c0.774,0.914,1.668,1.679,2.558,2.497
	c0-0.054-0.03-0.096-0.09-0.125"/>
<path fill="none" stroke="#FF2C1F" stroke-width="0.25" d="M74.438,328c0.626,0.789,1.236,1.806,2.026,2.475
	c0.648,0.548,1.705,1.523,1.974,2.213"/>
<path fill="none" stroke="#FF2C1F" stroke-width="0.25" d="M77.062,332.25c0.647,0.058,1.999,1.203,2.25,1.812"/>
<path fill="none" stroke="#FF2C1F" stroke-width="0.25" d="M78.125,332c0.263,0.188,0.429,0.54,0.662,0.77
	c0.233,0.229,0.519,0.398,0.753,0.613c0.523,0.479,1.01,1.168,1.334,1.805"/>
<path fill="none" stroke="#FF2C1F" stroke-width="0.25" d="M80.375,334.188c0.411,0.264,0.896,0.309,1.306,0.6
	c0.429,0.305,0.832,0.658,1.236,0.995c0.558,0.465,1.943,1.544,2.083,2.28"/>
<path fill="none" stroke="#FF2C1F" stroke-width="0.25" d="M84.625,337.625c0.56,0.689,1.221,1.191,1.837,1.811
	c0.73,0.733,1.222,1.801,2.36,2.001c0.059,0.068-0.028,0.009-0.073,0.001"/>
<path fill="none" stroke="#FF2C1F" stroke-width="0.25" d="M87.188,338.312c0.42,0.228,0.903,0.614,1.25,0.938"/>
<path fill="none" stroke="#FF2C1F" stroke-width="0.25" d="M91.688,335.25c0.223,0.474,0.444,0.979,0.655,1.462
	c0.219,0.5,0.576,0.934,0.783,1.413"/>
<path fill="none" stroke="#FF2C1F" stroke-width="0.25" d="M93.938,339.75c0.085,0.179-0.045,0.538-0.312,0.625"/>
<path fill="none" stroke="#FF2C1F" stroke-width="0.25" d="M63.438,294.5c0.545,0.752,0.897,1.808,1.28,2.659
	c0.353,0.786,0.735,1.547,1.166,2.293c0.488,0.844,1.112,1.477,1.72,2.223c0.746,0.916,1.332,1.91,1.997,2.882
	c0.979,1.432,1.993,2.941,2.874,4.438c0.505,0.857,0.918,1.742,1.577,2.507c0.708,0.821,1.411,1.594,2.059,2.469
	c0.684,0.923,1.333,1.869,1.987,2.814c0.483,0.699,1.177,1.156,1.278,2.09"/>
<path fill="none" stroke="#FF2C1F" stroke-width="0.25" d="M77.812,308.5c0.183,0.225,0.364,0.549,0.438,0.812"/>
<path fill="none" stroke="#FF2C1F" stroke-width="0.25" d="M84.562,307.75c0.375,0.41,0.548,0.864,0.842,1.312
	c0.239,0.364,0.751,0.695,0.908,1"/>
<path fill="none" stroke="#FF2C1F" stroke-width="0.25" d="M85.312,311.938c0.458,0.052,0.624-0.191,0.938-0.438"/>
<path fill="none" stroke="#FF2C1F" stroke-width="0.25" d="M73.625,296.5c0.367,0.714,0.702,1.467,1.157,2.16
	c0.375,0.57,1.06,1.46,1.155,2.027"/>
<path fill="none" stroke="#FF2C1F" stroke-width="0.25" d="M71.75,289.438c0.251,0.4,0.222,1.073,0.366,1.536
	c0.176,0.57,0.398,1.135,0.567,1.707c0.251,0.848,0.644,1.832,0.879,2.57"/>
<path fill="none" stroke="#FF2C1F" stroke-width="0.25" d="M79.688,317.5c0.219,0.704,0.574,1.479,0.688,2.207
	c0-0.048,0-0.097,0-0.145"/>
<path fill="none" stroke="#FF2C1F" stroke-width="0.25" d="M80.688,314.938c-0.01,0.159,0.01,0.3,0.062,0.438"/>
<path fill="none" stroke="#FF2C1F" stroke-width="0.25" d="M66.062,285.938c0.007,1.303,0.374,3.324,1.242,4.388
	c0.01,0.047-0.008,0.085-0.055,0.112"/>
<path fill="none" stroke="#FF2C1F" stroke-width="0.25" d="M68.25,290.312c0.108,0.201,0.139,0.42,0.25,0.625"/>
<path fill="none" stroke="#FF2C1F" stroke-width="0.25" d="M66.125,286.562c0.38,0.385,0.902,1.229,0.812,1.812"/>
<path fill="none" stroke="#FF2C1F" stroke-width="0.25" d="M66.562,287.188c0.185,0.266,0.493,0.457,0.625,0.75"/>
<path fill="none" stroke="#FF2C1F" stroke-width="0.25" d="M93.438,239.688c0.065,0.597,0.391,1.223,0.188,1.812"/>
<path fill="none" stroke="#FF2C1F" stroke-width="0.25" d="M93.312,241c0.31,0.342,0.125,1.006,0.438,1.438"/>
<path fill="none" stroke="#FF2C1F" stroke-width="0.25" d="M92.542,337.75c0.264,0.24,0.717,0.461,0.875,0.792"/>
<path fill="none" stroke="#FF2C1F" stroke-width="0.25" d="M93.083,338.292c0.67,1.175,1.079,2.484,1.568,3.737
	c0.189,0.485,0.388,0.951,0.446,1.47c0.043,0.383,0.026,0.85,0.278,1.168"/>
<path fill="none" stroke="#FF2C1F" stroke-width="0.25" d="M88.917,341.583c2.638,3.038,6.207,5.017,9.086,7.81
	c2.893,2.805,5.439,5.733,7.972,8.864c2.423,2.996,4.752,6.058,7.289,8.962c2.193,2.51,4.308,5.208,6.753,7.473
	c1.789,1.657,3.366,3.457,4.952,5.302c1.069,1.243,2.587,2.267,3.185,3.838c0.146,0.383,0.247,0.785,0.35,1.181
	c-0.012,0.145-0.003-0.126-0.004-0.096"/>
<path fill="none" stroke="#FF2C1F" stroke-width="0.25" d="M124.583,366.75c0.149,0.329,0.033,0.682,0.085,1.045
	c0.057,0.39,0.25,0.716,0.248,1.121"/>
<path fill="none" stroke="#FF2C1F" stroke-width="0.25" d="M115.25,368.333c0.12,0.43,0.317,0.722,0.583,1.083"/>
<path fill="none" stroke="#FF2C1F" stroke-width="0.25" d="M127.583,362.5c1.106,1.845,2.817,3.549,4.319,5.087
	c0.54,0.553,1.105,1.084,1.641,1.646c0.414,0.435,1.056,0.844,1.373,1.351"/>
<path fill="none" stroke="#FF2C1F" stroke-width="0.25" d="M134.333,371.166c1.099,0.932,2.288,1.811,3.425,2.72
	c0.584,0.466,1.221,0.785,1.854,1.183c0.486,0.305,1.071,0.916,1.47,1.098"/>
<path fill="none" stroke="#FF2C1F" stroke-width="0.25" d="M123.917,379.416c0.658,0.227,1.158,1.419,1.664,1.911
	c0.424,0.412,1.254,1.124,1.42,1.506"/>
<path fill="none" stroke="#FF2C1F" stroke-width="0.25" d="M127.167,383.666c0.487,0.239,1.132,0.812,1.333,1.334"/>
<path fill="none" stroke="#FF2C1F" stroke-width="0.25" d="M128.5,384.666c1.463,2.439,3.567,4.391,5.407,6.521
	c3.534,4.093,6.318,8.709,9.836,12.855c1.307,1.541,3.002,2.719,4.307,4.232c1.262,1.463,2.546,2.83,4.017,4.12
	c1.255,1.101,2.325,2.446,3.679,3.428c1.513,1.097,3.348,1.72,4.993,2.588c1.43,0.755,2.732,1.415,4.337,1.711
	c2.264,0.415,4.609,0.575,6.842,1.114s4.338,1.484,6.499,2.248c2.264,0.8,4.589,1.433,6.84,2.27
	c2.006,0.747,3.952,1.679,5.911,2.537c2.165,0.948,4.146,2.195,6.254,3.245c3.021,1.504,6.096,2.926,9.159,4.345
	c3.181,1.473,6.659,2.86,9.449,5.02c0.037,0.071-0.089-0.052-0.114-0.067"/>
<path fill="none" stroke="#FF2C1F" stroke-width="0.25" d="M178.167,436.083c1.339,0.709,2.899,1.162,4.293,1.734
	c1.332,0.547,2.746,1.029,4.108,1.433c0.72,0.214,1.651,0.426,2.265,0.833"/>
<path fill="none" stroke="#FF2C1F" stroke-width="0.25" d="M184.667,440c0.321,0.139,0.979-0.32,1.411-0.321
	c0.012,0.065-0.014,0.117-0.077,0.154"/>
<path fill="none" stroke="#FF2C1F" stroke-width="0.25" d="M185.25,440.666c0.426,0.376,0.499,0.337,1.146,0.21
	c0.59-0.116,1.153-0.291,1.725,0.012c0.559,0.295,0.665,0.402,1.328,0.444c0.418,0.026,1.003,0.085,1.302,0.334"/>
<path fill="none" stroke="#FF2C1F" stroke-width="0.25" d="M189.25,451.333c0.084,0.277,0.26,0.503,0.5,0.667"/>
<path fill="none" stroke="#FF2C1F" stroke-width="0.25" d="M195.75,455.416c0.465-0.211,3.836-0.915,3.833-1"/>
<path fill="none" stroke="#FF2C1F" stroke-width="0.25" d="M155.583,408c0.11,0.297,0.646,0.094,0.917,0.333"/>
<path fill="none" stroke="#FF2C1F" stroke-width="0.25" d="M166.25,392.333c0.297,0.071,0.735,0.928,0.833,1.25"/>
<path fill="none" stroke="#FF2C1F" stroke-width="0.25" d="M169,395.583c0,0.559-0.069,1.281,0,1.75"/>
<path fill="none" stroke="#FF2C1F" stroke-width="0.25" d="M167,394.166c0.082,0.422,0.36,0.749,0.418,1.246
	c0.054,0.455-0.052,0.896,0.082,1.338"/>
<path fill="none" stroke="#FF2C1F" stroke-width="0.25" d="M173,398.25c0.72,0.269,0.995,1.348,1.451,1.893
	c0.585,0.699,1.333,0.668,2.049,1.107"/>
<path fill="none" stroke="#FF2C1F" stroke-width="0.25" d="M173.583,401.083c0.385-0.08,0.762-0.08,1.167-0.083"/>
<path fill="none" stroke="#FF2C1F" stroke-width="0.25" d="M174.583,399.416c0.301,0.341,0.763,0.348,1.083,0.667"/>
<path fill="none" stroke="#FF2C1F" stroke-width="0.25" d="M174.5,409.25c1.07-0.41,2.304-1.845,2.833-2.834"/>
<path fill="none" stroke="#FF2C1F" stroke-width="0.25" d="M182,403.333c-0.422,1.009-1.571,1.33-2.453,1.851
	c-0.461,0.273-0.824,0.701-1.269,0.957c-0.415,0.238-0.969,0.061-1.362,0.359"/>
<path fill="none" stroke="#FF2C1F" stroke-width="0.25" d="M180.083,403.583c-0.113,0.354-0.043,0.812-0.25,1.083"/>
<path fill="none" stroke="#FF2C1F" stroke-width="0.25" d="M185.667,399.416c0.097,0.312-0.276,0.741-0.417,1.084"/>
<path fill="none" stroke="#FF2C1F" stroke-width="0.25" d="M169.167,409.25c0.312-0.044,0.637,0.016,0.917,0.083"/>
<path fill="none" stroke="#FF2C1F" stroke-width="0.25" d="M171.667,409.083c0.686,0.458,0.911-0.386,1.154-0.724
	c0.192-0.268,1.201-1.098,1.263-0.359"/>
<path fill="none" stroke="#FF2C1F" stroke-width="0.25" d="M166.25,410c0.274,0.39,0.359,0.69,0.833,0.916"/>
<path fill="none" stroke="#FF2C1F" stroke-width="0.25" d="M167.583,410.833c0.494,0.218,0.93,0.54,1.083,1.083"/>
<path fill="none" stroke="#FF2C1F" stroke-width="0.25" d="M169,414.333c0.256-0.044,0.5-0.155,0.667-0.333"/>
<path fill="none" stroke="#FF2C1F" stroke-width="0.25" d="M199.75,404.083c0.103,0.351,1.869-0.107,2.231-0.197
	c0.767-0.188,1.312-0.657,1.769-1.303"/>
<path fill="none" stroke="#FF2C1F" stroke-width="0.25" d="M202.667,401.5c0.648,0.022,1.293-0.729,1.917-1"/>
<path fill="none" stroke="#FF2C1F" stroke-width="0.25" d="M203.25,404.083c0.557-0.438,1.264-0.577,1.5-1.417"/>
<path fill="none" stroke="#FF2C1F" stroke-width="0.25" d="M205.583,402.083c0.31-0.141,0.632-0.305,0.833-0.583"/>
<path fill="none" stroke="#FF2C1F" stroke-width="0.25" d="M179.788,226.686c0.34,0.449,0.822,1.149,1.359,1.445"/>
<path fill="none" stroke="#FF2C1F" stroke-width="0.25" d="M178.938,226.94c0.253,0.376,0.371,0.953,0.68,1.36"/>
<path fill="none" stroke="#FF2C1F" stroke-width="0.25" d="M181.147,225.751c0.112,0.451,0.927,0.862,1.275,1.104"/>
<path fill="none" stroke="#FF2C1F" stroke-width="0.25" d="M178.683,227.706c0.042,0.385-0.007,0.809-0.255,1.104"/>
<path fill="none" stroke="#FF2C1F" stroke-width="0.25" d="M179.618,229.065c0.314,0.215,0.641,0.639,0.935,0.935"/>
<path fill="none" stroke="#FF2C1F" stroke-width="0.25" d="M181.913,228.895c0.146,0.216,0.112,0.466-0.085,0.68"/>
<path fill="none" stroke="#FF2C1F" stroke-width="0.25" d="M184.207,225.156c-0.032,0.285-0.292,0.378-0.595,0.34"/>
<path fill="none" stroke="#FF2C1F" stroke-width="0.25" d="M184.632,223.287c0.016,0.164-0.153,0.384-0.34,0.595"/>
<path fill="none" stroke="#FF2C1F" stroke-width="0.25" d="M186.331,225.836c0.001-0.412,0.092-0.974-0.17-1.274"/>
<path fill="none" stroke="#FF2C1F" stroke-width="0.25" d="M185.821,223.966c0.02,0.325-0.16,0.782-0.51,0.935"/>
<path fill="none" stroke="#FF2C1F" stroke-width="0.25" d="M187.691,224.136c0.171,0.17,0.06,0.782,0.17,1.105"/>
<path fill="none" stroke="#FF2C1F" stroke-width="0.25" d="M187.011,225.836c0.057,0.372-0.175,0.815-0.51,1.02"/>
<path fill="none" stroke="#FF2C1F" stroke-width="0.25" d="M188.965,226.601c-0.025,0.298-0.342,0.629-0.595,0.85"/>
<path fill="none" stroke="#FF2C1F" stroke-width="0.25" d="M187.181,227.025c0.062,0.221-0.187,0.56-0.425,0.765"/>
<path fill="none" stroke="#FF2C1F" stroke-width="0.25" d="M186.076,227.025c0.208,0.354-0.088,0.808-0.17,1.19"/>
<path fill="none" stroke="#FF2C1F" stroke-width="0.25" d="M185.481,225.751c0.22,0.239,0.29,0.526,0.34,0.85"/>
<path fill="none" stroke="#FF2C1F" stroke-width="0.25" d="M185.227,228.215c-0.004,0.3-0.058,0.594,0.085,0.85"/>
<path fill="none" stroke="#FF2C1F" stroke-width="0.25" d="M185.991,228.98c0.015,0.315-0.267,0.534-0.51,0.765"/>
<path fill="none" stroke="#FF2C1F" stroke-width="0.25" d="M187.606,229.065c0.022,0.309-0.074,0.59-0.255,0.85"/>
<path fill="none" stroke="#FF2C1F" stroke-width="0.25" d="M187.946,228.385c0.112,0.146,0.057,0.389-0.085,0.595"/>
<path fill="none" stroke="#FF2C1F" stroke-width="0.25" d="M186.076,230.595c-0.178,0.093-0.327,0.243-0.425,0.425"/>
<path fill="none" stroke="#FF2C1F" stroke-width="0.25" d="M186.161,232.039c0.073,0.868-0.343,1.938-0.566,2.766
	c-0.158,0.587-0.294,1.426-0.539,1.908"/>
<path fill="none" stroke="#FF2C1F" stroke-width="0.25" d="M186.076,236.288c0.063,0.55-0.308,1.281-0.51,1.785"/>
<path fill="none" stroke="#FF2C1F" stroke-width="0.25" d="M187.011,237.223c0.409,0.023,1.054,0.131,1.189-0.425"/>
<path fill="none" stroke="#FF2C1F" stroke-width="0.25" d="M181.062,238.752c0.419,0.196,0.861,0.216,1.275,0.34"/>
<path fill="none" stroke="#FF2C1F" stroke-width="0.25" d="M184.122,240.027c-0.005,0.563-0.324,1.072-0.338,1.651
	c-0.012,0.469,0.123,0.909,0.168,1.323"/>
<path fill="none" stroke="#FF2C1F" stroke-width="0.25" d="M184.717,239.432c0.041,0.313,0.037,0.767-0.085,1.105"/>
<path fill="none" stroke="#FF2C1F" stroke-width="0.25" d="M184.717,246.146c-0.215-0.5-0.834-1.712-1.445-1.7"/>
<path fill="none" stroke="#FF2C1F" stroke-width="0.25" d="M185.906,247.335c0.312,0.095,0.884-0.062,1.275,0.255"/>
<path fill="none" stroke="#FF2C1F" stroke-width="0.25" d="M183.952,243.171c0.058,0.308-0.018,0.635-0.255,0.85"/>
<path fill="none" stroke="#FF2C1F" stroke-width="0.25" d="M184.802,235.269c-0.072,0.291-0.218,0.575-0.34,0.85"/>
<path fill="none" stroke="#FF2C1F" stroke-width="0.25" d="M184.887,236.713c0.074,0.197-0.163,0.391-0.425,0.51"/>
<path fill="none" stroke="#FF2C1F" stroke-width="0.25" d="M180.723,227.366c0.354,0.162,0.845-0.053,1.105-0.255"/>
<path fill="none" stroke="#FF2C1F" stroke-width="0.25" d="M198.143,226.601c-0.81,1.366-1.284,3.802-3.314,3.909"/>
<path fill="none" stroke="#FF2C1F" stroke-width="0.25" d="M194.319,231.02c-0.033,0.902,0.047,1.572,0.438,2.389
	c0.294,0.615,0.51,1.123,0.393,1.833c-0.192,1.169-0.869,2.193-0.831,3.426"/>
<path fill="none" stroke="#FF2C1F" stroke-width="0.25" d="M195.934,241.132c0.019,1.269,0.357,1.851,0.931,2.923
	c0.387,0.722,0.704,1.779,0.173,2.515"/>
<path fill="none" stroke="#FF2C1F" stroke-width="0.25" d="M196.698,246.995c0.136,0.234-0.437,1.379-0.515,1.792
	c-0.113,0.598-0.214,1.234-0.253,1.845c-0.07,1.119-0.024,2.002-0.443,3.07c-0.104-0.021-0.037-0.073-0.064-0.163"/>
<path fill="none" stroke="#FF2C1F" stroke-width="0.25" d="M195.424,254.218c-0.126,0.397-0.54,0.721-0.634,1.224
	c-0.078,0.413-0.046,0.976-0.045,1.326"/>
<path fill="none" stroke="#FF2C1F" stroke-width="0.25" d="M198.313,244.956c0.099,0.73-0.452,1.283-0.257,2.025
	c0.088,0.333,1.144,2.23,0.257,2.139"/>
<path fill="none" stroke="#FF2C1F" stroke-width="0.25" d="M197.718,240.282c0.157,0.336-0.075,0.418-0.063,0.703
	c0.011,0.283,0.156,0.589,0.151,0.868c-0.006,0.395-0.25,0.877-0.513,1.148"/>
<path fill="none" stroke="#FF2C1F" stroke-width="0.25" d="M198.738,242.662c-0.044,0.344-0.044,0.7-0.17,1.02"/>
<path fill="none" stroke="#FF2C1F" stroke-width="0.25" d="M193.979,240.112c0.117,0.416,0.009,1.042,0.085,1.529"/>
<path fill="none" stroke="#FF2C1F" stroke-width="0.25" d="M194.829,242.321c-0.056,0.251-0.093,0.508-0.085,0.765"/>
<path fill="none" stroke="#FF2C1F" stroke-width="0.25" d="M197.973,228.895c0.018,0.405-0.643,0.758-0.951,0.992
	c-0.585,0.444-0.739,0.572-0.919,1.303"/>
<path fill="none" stroke="#FF2C1F" stroke-width="0.25" d="M195.424,233.399c0.003-0.249,0.008-0.697,0-0.85"/>
<path fill="none" stroke="#FF2C1F" stroke-width="0.25" d="M196.104,232.209c0.187,0.342,0.208,0.726,0.17,1.105"/>
<path fill="none" stroke="#FF2C1F" stroke-width="0.25" d="M195.169,230.85c0,0.34,0,0.68,0,1.02"/>
<path fill="none" stroke="#FF2C1F" stroke-width="0.25" d="M194.659,230c-0.161,0.17-0.28,0.375-0.34,0.595"/>
<path fill="none" stroke="#FF2C1F" stroke-width="0.25" d="M200.098,226.346c0.048,0.406-0.53,0.964-0.765,1.36"/>
<path fill="none" stroke="#FF2C1F" stroke-width="0.25" d="M196.528,257.107c-0.106,0.314-0.284,0.62-0.425,0.935"/>
<path fill="none" stroke="#FF2C1F" stroke-width="0.25" d="M197.038,254.303c0.108,0.216,0.052,0.446-0.085,0.68"/>
<path fill="none" stroke="#FF2C1F" stroke-width="0.25" d="M196.188,253.708c0.094,0.291-0.036,0.557-0.17,0.85"/>
<path fill="none" stroke="#FF2C1F" stroke-width="0.25" d="M195.424,258.297c0.141,0.24,0.032,0.507-0.085,0.765"/>
<path fill="none" stroke="#FF2C1F" stroke-width="0.25" d="M197.378,254.813c-0.05,0.263-0.142,0.525-0.255,0.765"/>
<path fill="none" stroke="#FF2C1F" stroke-width="0.25" d="M197.718,259.317c0.127,0.271-0.202,0.647-0.34,0.935"/>
<path fill="none" stroke="#FF2C1F" stroke-width="0.25" d="M210.209,208.416c0.002,1.276-0.616,2.75-1.13,3.896
	c-0.656,1.463-1.872,2.403-2.693,3.752"/>
<path fill="none" stroke="#FF2C1F" stroke-width="0.25" d="M213.864,202.042c0.083,1.704-1.012,3.315-1.774,4.726
	c-0.382,0.708-0.597,4.579-1.285,4.537"/>
<path fill="none" stroke="#FF2C1F" stroke-width="0.25" d="M213.949,197.539c0.278,0.745,0.557,1.547,0.859,2.329
	c0.323,0.837,0.693,2.424,0.331,3.28"/>
<path fill="none" stroke="#FF2C1F" stroke-width="0.25" d="M217.348,194.139c-0.051,0.514-0.675,1.027-0.792,1.63
	c-0.146,0.753-0.311,1.78-0.143,2.449"/>
<path fill="none" stroke="#FF2C1F" stroke-width="0.25" d="M216.583,192.185c-0.012,0.562-0.375,1.19-0.595,1.699"/>
<path fill="none" stroke="#FF2C1F" stroke-width="0.25" d="M197.803,261.016c-0.542,0.972-0.583,1.976-0.935,2.974"/>
<path fill="none" stroke="#FF2C1F" stroke-width="0.25" d="M200.012,265.945c-0.055,0.656-0.523,1.261-0.595,1.954"/>
<path fill="none" stroke="#FF2C1F" stroke-width="0.25" d="M201.287,263.311c-0.083,0.38-0.275,0.72-0.34,1.104"/>
<path fill="none" stroke="#FF2C1F" stroke-width="0.25" d="M201.372,266.455c0.077,0.416-0.116,0.937-0.255,1.359"/>
<path fill="none" stroke="#FF2C1F" stroke-width="0.25" d="M156.504,234.248c-0.511,0.873-1.847,1.65-2.804,1.87"/>
<path fill="none" stroke="#FF2C1F" stroke-width="0.25" d="M135.854,214.958c0.062,0.576-0.527,2.901,0.17,2.974"/>
<path fill="none" stroke="#FF2C1F" stroke-width="0.25" d="M148.771,265.604c0.101,0.438,0.52,0.685,0.85,0.935"/>
<path fill="none" stroke="#FF2C1F" stroke-width="0.25" d="M135.005,241.216c0.129,0.264,0.147,0.544,0.17,0.85"/>
<path fill="none" stroke="#FF2C1F" stroke-width="0.25" d="M133.985,242.151c0.125,0.264,0.085,0.549,0.085,0.85"/>
<path fill="none" stroke="#FF2C1F" stroke-width="0.25" d="M133.9,243.851c0.008,0.19-0.02,0.349-0.085,0.51"/>
<path fill="none" stroke="#FF2C1F" stroke-width="0.25" d="M135.77,239.262c0.058,0.194,0.086,0.393,0.085,0.595"/>
<path fill="none" stroke="#FF2C1F" stroke-width="0.25" d="M185.481,227.11c0.156,0.237,0.041,0.523-0.085,0.765"/>
<path fill="none" stroke="#FF2C1F" stroke-width="0.25" d="M186.331,228.895c0.056,0.219,0.055,0.455,0,0.68"/>
<path fill="none" stroke="#FF2C1F" stroke-width="0.25" d="M184.972,225.41c0.292,0.144,0.632,0.246,0.935,0.085"/>
<path fill="none" stroke="#FF2C1F" stroke-width="0.25" d="M213.014,196.943c0.182,0.281,0.488,0.419,0.51,0.765"/>
<path fill="none" stroke="#FF2C1F" stroke-width="0.25" d="M213.694,196.263c0.135,0.168,0.194,0.368,0.17,0.595"/>
<path fill="none" stroke="#FF2C1F" stroke-width="0.25" d="M169.603,311.646c0.24,0.311,0.238,0.678,0.434,0.992"/>
<path fill="none" stroke="#FF2C1F" stroke-width="0.25" d="M172.208,311.771c-0.131,0.179,0.489,1.372,0.62,1.675"/>
<path fill="none" stroke="#FF2C1F" stroke-width="0.25" d="M172.581,311.088c0.012,0.575,0.81,1.589,1.303,1.861"/>
<path fill="none" stroke="#FF2C1F" stroke-width="0.25" d="M174.317,312.949c0.287,0.537,0.833,0.86,1.146,1.394
	c0.309,0.525,0.702,1.196,0.652,1.832"/>
<path fill="none" stroke="#FF2C1F" stroke-width="0.25" d="M173.759,310.902c0.247,0.445,0.344,1.107,0.806,1.427"/>
<path fill="none" stroke="#FF2C1F" stroke-width="0.25" d="M175.062,312.081c0.262,0.368,0.291,0.878,0.434,1.303"/>
<path fill="none" stroke="#FF2C1F" stroke-width="0.25" d="M184.119,314.5c0.09,0.128,0.133,0.274,0.124,0.435"/>
<path fill="none" stroke="#FF2C1F" stroke-width="0.25" d="M184.429,312.639c0.245,0.156,0.371,0.525,0.372,0.807"/>
<path fill="none" stroke="#FF2C1F" stroke-width="0.25" d="M184.739,310.964c0.125,0.193,0.184,0.542,0.187,0.807"/>
<path fill="none" stroke="#FF2C1F" stroke-width="0.25" d="M187.468,312.949c0.178,0.279,0.126,0.607,0.124,0.931"/>
<path fill="none" stroke="#FF2C1F" stroke-width="0.25" d="M186.414,311.833c0.057,0.15,0.1,0.323,0.124,0.496"/>
<path fill="none" stroke="#FF2C1F" stroke-width="0.25" d="M186.228,313.756c0.058,0.209,0.093,0.465,0.186,0.683"/>
<path fill="none" stroke="#FF2C1F" stroke-width="0.25" d="M185.359,313.817c0.16,0.133,0.142,0.404,0.124,0.621"/>
<path fill="none" stroke="#FF2C1F" stroke-width="0.25" d="M185.359,315.183c0.2,0.188,0.281,0.498,0.434,0.744"/>
<path fill="none" stroke="#FF2C1F" stroke-width="0.25" d="M184.863,315.741c0.083,0.221,0.128,0.445,0.124,0.682"/>
<path fill="none" stroke="#FF2C1F" stroke-width="0.25" d="M184.615,317.912c0.062,0.186,0.133,0.37,0.186,0.559"/>
<path fill="none" stroke="#FF2C1F" stroke-width="0.25" d="M185.297,317.664c0.067,0.106,0.157,0.3,0.248,0.434"/>
<path fill="none" stroke="#FF2C1F" stroke-width="0.25" d="M186.29,318.719c0.094,0.122,0.125,0.308,0.124,0.496"/>
<path fill="none" stroke="#FF2C1F" stroke-width="0.25" d="M186.042,319.587c0.114,0.058,0.203,0.173,0.249,0.311"/>
<path fill="none" stroke="#FF2C1F" stroke-width="0.25" d="M190.074,318.719c0.2,0.197,0.17,0.908,0.186,1.24"/>
<path fill="none" stroke="#FF2C1F" stroke-width="0.25" d="M190.446,320.579c0.105,0.178,0.14,0.359,0.186,0.559"/>
<path fill="none" stroke="#FF2C1F" stroke-width="0.25" d="M190.012,317.229c0.001,0.247-0.043,0.526,0.062,0.744"/>
<path fill="none" stroke="#FF2C1F" stroke-width="0.25" d="M186.476,315.741c0.187,0.181,0.339,0.408,0.496,0.62"/>
<path fill="none" stroke="#FF2C1F" stroke-width="0.25" d="M186.6,314.687c0.118,0.071,0.188,0.179,0.186,0.31"/>
<path fill="none" stroke="#FF2C1F" stroke-width="0.25" d="M190.446,329.698c0.089,0.425,0.443,0.722,0.614,1.136
	c0.243,0.586,0.271,1.355,0.407,1.977c0.202,0.93,0.404,2.195,0.778,3.029"/>
<path fill="none" stroke="#FF2C1F" stroke-width="0.25" d="M191.376,328.768c0.016,0.353-0.031,0.715-0.124,1.055"/>
<path fill="none" stroke="#FF2C1F" stroke-width="0.25" d="M191.128,334.413c0.23,0.557,0.289,1.362,0.369,1.977
	c0.075,0.579,0.264,1.174,0.313,1.745"/>
<path fill="none" stroke="#FF2C1F" stroke-width="0.25" d="M193.3,335.716c0.332,1.516,0.516,3.04,0.762,4.569
	c0.195,1.212,0.82,2.257,1.316,3.366c0.771,1.722,1.206,3.555,1.954,5.277"/>
<path fill="none" stroke="#FF2C1F" stroke-width="0.25" d="M196.339,347.625c0.004,0.957,0.281,1.522,0.762,2.329
	c0.377,0.634,0.332,1.374,0.677,2.001c0.366,0.664,0.635,1.197,0.796,1.966c0.124,0.591,0.121,1.14,0.396,1.71
	c0.229,0.478,1.135,1.573,0.967,2.044"/>
<path fill="none" stroke="#FF2C1F" stroke-width="0.25" d="M198.82,356.496c-0.001,0.265-0.065,0.687,0.062,0.868"/>
<path fill="none" stroke="#FF2C1F" stroke-width="0.25" d="M198.262,350.106c0.057,0.548,0.117,1.088,0.31,1.675"/>
<path fill="none" stroke="#FF2C1F" stroke-width="0.25" d="M200.93,355.008c0.553,1.438,1.624,3.088,1.489,4.714"/>
<path fill="none" stroke="#FF2C1F" stroke-width="0.25" d="M199.937,358.978c0.122,0.27,0.073,0.601,0.184,0.893
	c0.098,0.257,0.312,0.396,0.441,0.604c0.21,0.34,0.305,0.69,0.368,1.076c0.144,0.885-0.187,2.01,0.558,2.699"/>
<path fill="none" stroke="#FF2C1F" stroke-width="0.25" d="M202.667,359.784c-0.024,0.684-0.737,1.439-1.241,1.86"/>
<path fill="none" stroke="#FF2C1F" stroke-width="0.25" d="M202.915,360.839c-0.004,0.39-0.375,0.722-0.621,0.992"/>
<path fill="none" stroke="#FF2C1F" stroke-width="0.25" d="M199.689,360.9c0.193,0.279,0.218,0.729,0.372,1.055"/>
<path fill="none" stroke="#FF2C1F" stroke-width="0.25" d="M199.999,364.188c0,0.186,0,0.372,0,0.558"/>
<path fill="none" stroke="#FF2C1F" stroke-width="0.25" d="M200.371,364.933c0.512,0.219,0.334,1.176,0,1.489"/>
<path fill="none" stroke="#FF2C1F" stroke-width="0.25" d="M205.272,330.07c0.017,0.374-0.136,0.831,0,1.179"/>
<path fill="none" stroke="#FF2C1F" stroke-width="0.25" d="M207.009,330.38c-0.042,0.462-0.194,0.884-0.186,1.365"/>
<path fill="none" stroke="#FF2C1F" stroke-width="0.25" d="M207.877,330.876c0.024,0.464-0.15,0.905-0.124,1.365"/>
<path fill="none" stroke="#FF2C1F" stroke-width="0.25" d="M209.552,332.924c0.037,0.271-0.112,0.496-0.186,0.744"/>
<path fill="none" stroke="#FF2C1F" stroke-width="0.25" d="M209.613,382.798c0.173,0.334,0.154,0.922,0,1.24"/>
<path fill="none" stroke="#FF2C1F" stroke-width="0.25" d="M208.311,385.651c0.024,0.258-0.061,0.5-0.124,0.744"/>
<path fill="none" stroke="#FF2C1F" stroke-width="0.25" d="M209.179,386.954c0.166,0.293,0.131,0.718,0.124,1.055"/>
<path fill="none" stroke="#FF2C1F" stroke-width="0.25" d="M242.702,417.768c0.497,0.511-0.732,1.369-0.781,1.862"/>
<path fill="none" stroke="#FF2C1F" stroke-width="0.25" d="M242.822,419.69c0,0.506,0.01,0.95,0.12,1.441"/>
<path fill="none" stroke="#FF2C1F" stroke-width="0.25" d="M245.345,414.825c0.44,0,0.882,0,1.322,0"/>
<path fill="none" stroke="#FF2C1F" stroke-width="0.25" d="M250.45,424.675c0.188,0.459,0.177,0.963,0.371,1.427
	c0.254,0.606,0.603,1.117,0.952,1.667c0.49,0.77,1.122,1.401,1.663,2.135c0.892,1.208,0.834,2.987,1.49,4.347
	c0.466,0.966,1.208,1.75,1.71,2.679"/>
<path fill="none" stroke="#FF2C1F" stroke-width="0.25" d="M239.099,425.396c1.201,0.305,1.77,1.509,2.334,2.487
	c0.794,1.378,2.207,1.926,3.208,3.082c0.998,1.152,1.742,2.708,2.212,4.148c0.355,1.088,0.974,1.993,1.464,3.016
	c0.506,1.056,1.366,1.801,1.474,3.003"/>
<path fill="none" stroke="#FF2C1F" stroke-width="0.25" d="M246.847,438.43c0.647,1.281,1.751,2.33,1.811,3.863
	c0.045,1.143,0.266,2.119,0.532,3.225"/>
<path fill="none" stroke="#FF2C1F" stroke-width="0.25" d="M250.03,447.199c0.532,0.379,1.456,3.009,1.081,3.664"/>
<path fill="none" stroke="#FF2C1F" stroke-width="0.25" d="M249.609,447.379c-0.001,0.777,0.214,1.606-0.12,2.343"/>
<path fill="none" stroke="#FF2C1F" stroke-width="0.25" d="M244.624,433.385c0.239,0.4,0.424,0.853,0.661,1.261"/>
<path fill="none" stroke="#FF2C1F" stroke-width="0.25" d="M246.547,433.084c0.489,0.444,0.729,1.085,0.957,1.678
	c0.231,0.604,0.221,1.15,0.364,1.746"/>
<path fill="none" stroke="#FF2C1F" stroke-width="0.25" d="M248.288,438.49c0.186,0.523,0.084,1.135,0.24,1.682"/>
<path fill="none" stroke="#FF2C1F" stroke-width="0.25" d="M246.667,431.583c0.2,0.424,0.275,0.936,0.42,1.381"/>
<path fill="none" stroke="#FF2C1F" stroke-width="0.25" d="M244.384,428.159c0.009-0.039,0.132-0.018,0.004-0.07
	c-0.127,0.18-0.342,0.367-0.544,0.49"/>
<path fill="none" stroke="#FF2C1F" stroke-width="0.25" d="M243.063,428.459c0.276,0.34,0.653,0.589,0.901,0.961"/>
<path fill="none" stroke="#FF2C1F" stroke-width="0.25" d="M249.85,422.513c-0.017,0.354,0.118,0.673,0.181,1.021"/>
<path fill="none" stroke="#FF2C1F" stroke-width="0.25" d="M252.253,422.993c0.002,0.32-0.033,0.649,0.06,0.961"/>
<path fill="none" stroke="#FF2C1F" stroke-width="0.25" d="M256.156,437.349c0.266,0.747,1.186,1.081,1.201,1.922"/>
<path fill="none" stroke="#FF2C1F" stroke-width="0.25" d="M257.117,437.349c0.347,0.287,0.61,0.992,0.602,1.441"/>
<path fill="none" stroke="#FF2C1F" stroke-width="0.25" d="M242.822,453.806c0.575,0.176,1.285,0.276,1.802,0.602"/>
<path fill="none" stroke="#FF2C1F" stroke-width="0.25" d="M230.51,458.909c0.533,0.213,0.744,0.532,1.053,0.984
	c0.189,0.276,0.602,0.635,0.688,0.938"/>
<path fill="none" stroke="#FF2C1F" stroke-width="0.25" d="M225.405,469.54c0.44,0.347,0.833,0.757,1.321,1.021"/>
<path fill="none" stroke="#FF2C1F" stroke-width="0.25" d="M227.447,471.583c0.349,0.088,0.609,0.69,0.961,0.9"/>
<path fill="none" stroke="#FF2C1F" stroke-width="0.25" d="M258.979,464.133c0.39-0.051,1.094,0.957,1.383,1.261
	c0.446,0.469,0.856,0.943,1.38,1.322"/>
<path fill="none" stroke="#FF2C1F" stroke-width="0.25" d="M262.764,467.437c1.004,0.975,1.782,2.129,2.749,3.151
	c0.628,0.664,1.259,1.259,1.93,1.854c0.304,0.271,1.256,0.964,1.268,1.36"/>
<path fill="none" stroke="#FF2C1F" stroke-width="0.25" d="M271.112,476.206c0.681,2.718,2.014,5.235,2.722,7.949
	c0.496,1.906,1.269,3.71,1.977,5.544c0.393,1.02,0.748,2.147,1.309,3.084"/>
<path fill="none" stroke="#FF2C1F" stroke-width="0.25" d="M275.678,491.883c0.396,0.183,0.579,0.894,0.854,1.246
	c0.252,0.321,0.568,0.587,0.816,0.904c0.242,0.31,0.371,0.688,0.559,1.027c0.302,0.546,0.74,0.957,1.128,1.437
	c0.697,0.861,1.1,1.819,1.681,2.735c0.184,0.288,0.472,0.533,0.677,0.813c0.212,0.289,0.325,0.661,0.651,0.846"/>
<path fill="none" stroke="#FF2C1F" stroke-width="0.25" d="M256.217,481.131c0.732,0.364,1.41,1.385,1.897,2.038
	c0.223,0.298,0.356,0.589,0.694,0.791c0.228,0.137,0.632,0.133,0.712,0.354"/>
<path fill="none" stroke="#FF2C1F" stroke-width="0.25" d="M257.237,483.354c0.356,0.24,0.675,0.649,1.022,0.919
	c0.28,0.219,0.811,0.573,0.96,0.702"/>
<path fill="none" stroke="#FF2C1F" stroke-width="0.25" d="M259.58,483.954c0.248,0.428,0.693,0.691,1.008,1.056
	c0.328,0.38,0.369,0.873,0.582,1.318c0.423,0.887,1.266,1.739,2.147,2.198c0.084-0.021-0.078-0.008-0.073-0.008"/>
<path fill="none" stroke="#FF2C1F" stroke-width="0.25" d="M266.848,487.798c2.583,1.473,5.717,3.294,6.427,6.427"/>
<path fill="none" stroke="#FF2C1F" stroke-width="0.25" d="M268.649,485.035c-0.225,0.559-0.636,1.049-0.928,1.568
	c-0.188,0.333-0.279,0.697-0.514,1.015"/>
<path fill="none" stroke="#FF2C1F" stroke-width="0.25" d="M268.77,486.057c0.103,0.306-0.567,1.229-0.66,1.621"/>
<path fill="none" stroke="#FF2C1F" stroke-width="0.25" d="M269.551,485.876c-0.208,1.024-0.806,1.948-1.742,2.463"/>
<path fill="none" stroke="#FF2C1F" stroke-width="0.25" d="M267.448,484.314c0.081,0.272-0.552,0.781-0.721,1.021"/>
<path fill="none" stroke="#FF2C1F" stroke-width="0.25" d="M266.188,487.258c0.287,0.031,0.556-0.065,0.78-0.24"/>
<path fill="none" stroke="#FF2C1F" stroke-width="0.25" d="M269.671,487.918c0.093,0.156,0.062,0.326-0.06,0.48"/>
<path fill="none" stroke="#FF2C1F" stroke-width="0.25" d="M269.491,488.819c0.051,0.056,0.051,0.116,0,0.18"/>
<path fill="none" stroke="#FF2C1F" stroke-width="0.25" d="M278.14,490.801c0.003,1.443,0.584,2.998,0.12,4.385"/>
<path fill="none" stroke="#FF2C1F" stroke-width="0.25" d="M278.681,492.062c0.146,0.249,0.069,0.643-0.061,0.901"/>
<path fill="none" stroke="#FF2C1F" stroke-width="0.25" d="M266.968,497.288c-0.071,0.296-0.38,0.467-0.55,0.716
	c-0.268,0.395-0.333,0.793-0.351,1.267"/>
<path fill="none" stroke="#FF2C1F" stroke-width="0.25" d="M267.328,498.069c-0.026,0.665-0.302,1.288-0.3,1.981"/>
<path fill="none" stroke="#FF2C1F" stroke-width="0.25" d="M267.809,499.271c0.197,0.376-0.173,1.08-0.36,1.381"/>
<path fill="none" stroke="#FF2C1F" stroke-width="0.25" d="M269.011,499.69c-0.039,0.617-0.653,1.723-1.322,1.802"/>
<path fill="none" stroke="#FF2C1F" stroke-width="0.25" d="M269.671,500.892c-0.062,0.237-0.554,0.752-0.841,0.901"/>
<path fill="none" stroke="#FF2C1F" stroke-width="0.25" d="M263.545,498.489c0.604,0.379,1.188,0.923,1.682,1.441"/>
<path fill="none" stroke="#FF2C1F" stroke-width="0.25" d="M265.827,499.871c0.603,0.502,1,1.061,1.321,1.802"/>
<path fill="none" stroke="#FF2C1F" stroke-width="0.25" d="M264.926,500.651c0.553,0.529,1.086,1.218,1.742,1.622"/>
<path fill="none" stroke="#FF2C1F" stroke-width="0.25" d="M263.124,496.747c-0.122,0.58-0.075,1.176-0.177,1.748
	c-0.091,0.507-0.46,0.912-0.664,1.376"/>
<path fill="none" stroke="#FF2C1F" stroke-width="0.25" d="M262.343,497.048c0.134,0.162,0.312,0.317,0.48,0.421"/>
<path fill="none" stroke="#FF2C1F" stroke-width="0.25" d="M270.572,501.132c0.103,0.185,0.06,0.395,0,0.601"/>
<path fill="none" stroke="#FF2C1F" stroke-width="0.25" d="M271.473,500.651c0.108,0.374,0.111,0.791,0.301,1.142"/>
<path fill="none" stroke="#FF2C1F" stroke-width="0.25" d="M272.374,500.411c0.087,0.214-0.1,0.545-0.24,0.781"/>
<path fill="none" stroke="#FF2C1F" stroke-width="0.25" d="M269.431,500.472c-0.104,0.271-0.289,0.556-0.54,0.721"/>
<path fill="none" stroke="#FF2C1F" stroke-width="0.25" d="M269.972,499.511c0.237,0.187,0.123,0.619,0.06,0.9"/>
<path fill="none" stroke="#FF2C1F" stroke-width="0.25" d="M268.529,495.906c0.253,0.214,0.342,0.644,0.301,0.961"/>
<path fill="none" stroke="#FF2C1F" stroke-width="0.25" d="M268.109,498.369c0.168,0.17,0.176,0.387,0.24,0.601"/>
<path fill="none" stroke="#FF2C1F" stroke-width="0.25" d="M268.409,499.511c0.042,0.305,0.16,0.619,0.061,0.9"/>
<path fill="none" stroke="#FF2C1F" stroke-width="0.25" d="M265.467,499.751c0.098,0.265-0.021,0.383-0.12,0.66"/>
<path fill="none" stroke="#FF2C1F" stroke-width="0.25" d="M265.947,500.291c0.061,0.206-0.021,0.412-0.12,0.601"/>
<path fill="none" stroke="#FF2C1F" stroke-width="0.25" d="M264.866,498.67c0.071,0.14,0.091,0.312,0.06,0.48"/>
<path fill="none" stroke="#FF2C1F" stroke-width="0.25" d="M266.548,499.45c-0.081,0.027-0.388,0.119-0.541,0.12"/>
<path fill="none" stroke="#FF2C1F" stroke-width="0.25" d="M264.986,499.931c0.017,0.152-0.11,0.285-0.301,0.36"/>
<path fill="none" stroke="#FF2C1F" stroke-width="0.25" d="M265.406,501.372c0.017,0.265-0.02,0.534-0.12,0.781"/>
<path fill="none" stroke="#FF2C1F" stroke-width="0.25" d="M325.169,42.73c0.738,0.044,1.363,0.128,1.869,0.748"/>
<path fill="none" stroke="#FF2C1F" stroke-width="0.25" d="M322.803,36.502c0.197,0.291,0.295,0.664,0.498,0.997"/>
<path fill="none" stroke="#FF2C1F" stroke-width="0.25" d="M323.924,37.997c0.25,0.367,0.371,0.776,0.623,1.121"/>
<path fill="none" stroke="#FF2C1F" stroke-width="0.25" d="M325.294,39.741c0.231,0.295,0.402,0.64,0.498,0.997"/>
<path fill="none" stroke="#FF2C1F" stroke-width="0.25" d="M323.052,42.108c0.747,0,1.495,0,2.242,0"/>
<path fill="none" stroke="#FF2C1F" stroke-width="0.25" d="M326.788,42.357c1.398,2.422,1.849,5.795,3.239,8.221"/>
<path fill="none" stroke="#FF2C1F" stroke-width="0.25" d="M407.506,15.202c1.208,1.015,2.52,0.466,3.437,1.806
	c0.433,0.632,0.862,1.112,1.429,1.625c0.452,0.411,1.488,0.905,1.737,1.303"/>
<path fill="none" stroke="#FF2C1F" stroke-width="0.25" d="M402.772,18.69c0.631,0.418,0.735,1.135,1.246,1.619"/>
<path fill="none" stroke="#FF2C1F" stroke-width="0.25" d="M405.514,14.829c0.902,0.307,1.573,1.387,2.374,1.938
	c0.648,0.446,1.564,0.588,2.109,1.176"/>
<path fill="none" stroke="#FF2C1F" stroke-width="0.25" d="M409.748,22.8c0.562,0.087,0.794-0.314,1.377-0.242
	c0.499,0.062,1.311,0.672,1.613,0.865"/>
<path fill="none" stroke="#FF2C1F" stroke-width="0.25" d="M409.499,19.936c0.622,0.427,1.395,0.546,1.993,0.997"/>
<path fill="none" stroke="#FF2C1F" stroke-width="0.25" d="M413.61,20.185c0.353,0.555,0.944,0.887,1.494,1.246"/>
<path fill="none" stroke="#FF2C1F" stroke-width="0.25" d="M473.359,554.341c1.227,1.782,1.064,3.656,0.612,5.694
	c-0.39,1.762-0.366,3.429-0.359,5.229c0.005,1.188-0.166,2.03-0.654,3.123"/>
<path fill="none" stroke="#FF2C1F" stroke-width="0.25" d="M473.259,553.237c0.069-0.067,0.488-1.148,0.603-1.505"/>
<path fill="none" stroke="#FF2C1F" stroke-width="0.25" d="M471.554,568.287c0.24,0.434,0.025,0.947-0.101,1.404"/>
<path fill="none" stroke="#FF2C1F" stroke-width="0.25" d="M471.253,570.595c0.011,0.28-0.022,0.544-0.101,0.803"/>
<path fill="none" stroke="#FF2C1F" stroke-width="0.25" d="M470.751,573.104c0.012,0.678-0.199,1.363-0.401,2.006"/>
<path fill="none" stroke="#FF2C1F" stroke-width="0.25" d="M472.256,579.123c0.008,2.092,0.562,4.175,0.803,6.221"/>
<path fill="none" stroke="#FF2C1F" stroke-width="0.25" d="M363.464,145.744c0.078,0.176-0.055,0.523-0.091,0.707
	c-0.086,0.432-0.146,0.867-0.225,1.3c-0.046,0.256-0.328,1.124-0.237,1.28"/>
<path fill="none" stroke="#FF2C1F" stroke-width="0.25" d="M362.696,149.614c0.009,0.345-0.092,0.743-0.185,1.075"/>
<path fill="none" stroke="#FF2C1F" stroke-width="0.25" d="M363.587,148.846c0.09,0.176,0.008,0.474-0.062,0.645"/>
<path fill="none" stroke="#FF2C1F" stroke-width="0.25" d="M363.863,148.048c0.042,0.145,0.06,0.307,0.062,0.46"/>
<path fill="none" stroke="#FF2C1F" stroke-width="0.25" d="M362.328,148.938c0.08,0.056,0.092,0.168,0.092,0.276"/>
</svg>
